Coordinates
version=1
nRows=15
nColumns=34
inDegrees=yes

Units are S.I. units (second, meters, Newtons, ...)
If the header above contains a line with 'inDegrees', this indicates whether rotational values are in degrees (yes) or radians (no).

endheader
time	pelvis_tilt	pelvis_list	pelvis_rotation	pelvis_tx	pelvis_ty	pelvis_tz	hip_flexion_r	hip_adduction_r	hip_rotation_r	knee_angle_r	ankle_angle_r	subtalar_angle_r	mtp_angle_r	hip_flexion_l	hip_adduction_l	hip_rotation_l	knee_angle_l	ankle_angle_l	subtalar_angle_l	mtp_angle_l	lumbar_extension	lumbar_bending	lumbar_rotation	arm_flex_r	arm_add_r	arm_rot_r	elbow_flex_r	pro_sup_r	arm_flex_l	arm_add_l	arm_rot_l	elbow_flex_l	pro_sup_l
      3.90000000	     -0.83404041	      2.18430857	     22.89965822	      0.45095041	      0.94705350	     -0.09828644	     -1.78496740	      1.09006828	    -10.11668957	      0.68090466	      1.91219137	     -6.35190970	      0.00000000	     -2.21465130	      5.24959993	    -10.19626734	      0.00000000	      0.81374756	      5.92174943	      0.00000000	    -12.24274163	     -1.21309637	      2.74279212	     11.67969154	     -3.66040405	     -2.90744485	     21.68182493	     86.11574319	     15.67032420	     -6.43649217	     14.89487277	     21.94350650	     78.27197656
      3.91666670	     -1.09702354	      2.08821186	     23.07738633	      0.46026214	      0.95310342	     -0.10266217	     -1.66144947	      1.08796696	    -10.01027955	      0.33114971	      2.18327231	     -6.42382591	      0.00000000	     -2.02117637	      5.27129924	    -10.20461611	      0.00000000	      0.90551684	      5.89174601	      0.00000000	    -11.99126469	     -1.21040334	      2.67147286	     12.86933155	     -3.60427763	     -2.81818584	     22.07949758	     86.10867747	     17.00581780	     -6.05330285	     14.96094754	     22.41421540	     78.28889678
      3.93333330	     -1.22503529	      1.97900539	     23.14974303	      0.45804239	      0.94640379	     -0.10179011	     -1.48464723	      1.12078357	     -9.76600622	      0.36661278	      2.85590807	     -6.52351584	      0.00000000	     -1.92601265	      5.22872968	     -9.80940945	      0.00000000	      1.30201001	      5.34301194	      0.00000000	    -11.90537344	     -1.24199676	      3.42713729	     13.84050792	     -4.37580020	     -0.20623509	     23.12828050	     85.56851459	     19.52492882	     -5.50710138	     17.51937334	     22.13850063	     78.53073583
      3.95000000	     -1.44793570	      1.79449298	     23.25308061	      0.46042117	      0.93661495	     -0.10068340	     -1.28034841	      1.24131132	     -9.51452804	      0.44086149	      3.25284848	     -6.63915986	      0.00000000	     -1.77296277	      5.13593948	     -9.61436181	      0.00000000	      1.69856698	      5.40350612	      0.00000000	    -11.56429755	     -1.21563807	      3.31939933	     15.45176349	     -4.20040574	     -0.13082675	     23.65212602	     85.49916835	     21.21598098	     -5.08268258	     17.52862459	     22.68982711	     78.48381658
      3.96666670	     -1.71025996	      1.62755964	     23.39536182	      0.46300622	      0.93989184	     -0.10320275	     -1.16313356	      1.36318222	     -9.50502323	      0.10218651	      3.46348408	     -6.72914475	      0.00000000	     -1.49242522	      5.10215316	     -9.68892625	      0.00000000	      1.94593835	      5.34275464	      0.00000000	    -11.10274319	     -1.21497562	      3.23894540	     17.02966369	     -3.94390115	     -0.05675547	     24.20753377	     85.48069227	     22.84119498	     -4.47046467	     17.52139530	     23.26467927	     78.45597034
      3.98333330	     -1.94377534	      1.47295845	     23.48455571	      0.46646555	      0.94660486	     -0.10422756	     -0.91266562	      1.44004947	     -9.39924808	      0.17919851	      3.43583168	     -6.75403813	      0.00000000	     -1.22311018	      5.03973209	     -9.59998267	      0.00000000	      1.90750818	      5.38518751	      0.00000000	    -10.79908644	     -1.23121512	      3.27013655	     18.71967725	     -3.76345343	      0.15019580	     24.83988047	     85.44760656	     24.73611625	     -3.91481299	     17.42097076	     23.78170708	     78.34186560
      4.00000000	     -2.20877837	      1.30519118	     23.53355852	      0.46972138	      0.94252984	     -0.10237447	     -0.76966234	      1.57502829	     -9.38875091	      0.00000000	      3.46541426	     -6.75672483	      0.00000000	     -1.07868841	      4.90744456	     -9.67891577	      0.00000000	      1.90457953	      5.33752745	      0.00000000	    -10.21018257	     -1.30615978	      3.29756019	     20.39521889	     -3.24437153	      0.30989006	     25.50613704	     85.45024698	     26.52430698	     -3.25334945	     17.34287314	     24.35908967	     78.28059396
      4.01666670	     -2.17010163	      1.35786478	     23.46473918	      0.46903262	      0.93888497	     -0.10216579	     -1.01132523	      1.57374081	     -8.79679812	      0.00000000	      3.46330932	     -7.05294771	      0.00000000	     -1.35753483	      4.88217766	     -9.18440111	      0.00000000	      1.26627491	      4.04855806	      0.00000000	    -10.10089514	     -1.56103869	      3.99235595	     21.89722338	     -3.57244136	      2.45153989	     27.44358398	     85.33418816	     29.30892827	     -1.69954021	     15.01229819	     23.35684857	     76.47079448
      4.03333330	     -2.47555690	      1.23096842	     23.37651291	      0.47233086	      0.94211783	     -0.10415026	     -0.82413447	      1.59163109	     -8.88781603	      0.00000000	      3.47141236	     -7.02216052	      0.00000000	     -1.14385123	      4.83119608	     -9.37080120	      0.00000000	      1.16621308	      4.00753439	      0.00000000	     -9.37560311	     -1.61448804	      4.02960357	     23.68602453	     -2.95855245	      2.55798827	     28.12706658	     85.32673261	     30.98097822	     -1.00291894	     14.92274188	     23.96500313	     76.39624090
      4.05000000	     -2.82633466	      1.09891781	     23.30044439	      0.47374137	      0.93289888	     -0.10720357	     -0.67006524	      1.55247964	     -8.50177805	      0.00000000	      3.52157428	     -7.06002735	      0.00000000	     -0.96862104	      4.85264836	     -9.19834567	      0.00000000	      0.54487476	      3.02042011	      0.00000000	     -8.48426893	     -1.53446625	      3.74580874	     25.42407776	     -2.69393762	      3.75469511	     29.44912437	     84.49097742	     32.43784930	      0.44090004	      9.22651840	     24.74947711	     72.16892711
      4.06666670	     -3.21902132	      1.01643256	     23.32701222	      0.46841557	      0.93054531	     -0.10481993	     -0.36055795	      1.47606635	     -8.44262401	      0.00000000	      3.71163249	     -7.11867862	      0.00000000	     -0.57259051	      4.94593687	     -9.15791602	      0.00000000	      0.51149018	      2.83944760	      0.00000000	     -7.81430028	     -1.60423154	      3.76496856	     27.64318261	     -2.39391801	      3.78195557	     30.21186965	     84.47345732	     34.67402313	      1.31453464	      9.07855779	     25.54591697	     72.04828269
      4.08333330	     -3.63387849	      0.86331359	     23.46912483	      0.46566186	      0.93133040	     -0.10629712	      0.10257323	      1.39894978	     -7.99613410	      0.00000000	      3.42670141	     -8.14966720	      0.00000000	     -0.01210319	      5.06324682	     -7.89272700	      0.00000000	     -0.80328481	      0.03494161	      0.00000000	     -7.21684059	     -1.62883460	      3.88921645	     29.81052491	     -2.43802524	      4.21016481	     31.66898031	     84.16347624	     37.31651342	      3.54264839	      4.97598571	     25.00462867	     69.51587483
      4.10000000	     -3.85532086	      0.98938898	     23.32823471	      0.47158203	      0.93268200	     -0.10801404	      0.15687174	      1.15533912	     -7.50902970	      0.00000000	      3.74355425	     -7.99145192	      0.00000000	      0.07028882	      5.29640510	     -7.84265579	      0.00000000	     -2.05664081	     -0.67103991	      0.00000000	     -6.74301264	     -1.86412991	      4.08347965	     31.98537352	     -2.17457369	      4.22580026	     32.35628118	     84.07862502	     39.29378568	      4.84531667	      4.08530316	     25.74551626	     68.87594576
      4.11666670	     -4.55051639	      0.66163558	     23.79100449	      0.46820661	      0.92792498	     -0.10819162	      0.97964925	      1.12580364	     -7.26739645	      0.00000000	      3.74261985	     -8.50736651	      0.00000000	      2.00493661	      5.16556002	     -7.05453727	      2.26185968	     -2.16537820	     -2.62726320	      0.00000000	     -5.57568945	     -1.70999612	      3.59750738	     34.43271221	     -1.86837054	      4.41862774	     32.73497937	     83.85657624	     41.74054463	      6.73904434	      0.38442337	     25.36119796	     66.59798032
      4.13333330	     -4.92227619	      0.52224190	     23.97368078	      0.47139129	      0.93080339	     -0.11001092	      1.60006427	      1.01495985	     -6.89190691	      0.57934056	      3.49947537	     -9.38956936	      0.00000000	      3.88057147	      5.02274329	     -7.01654822	      4.96920521	     -2.53866019	     -4.07803870	      0.00000000	     -4.89227370	     -1.69672443	      3.24730999	     37.19332734	     -1.48215282	      4.75898186	     32.44058946	     83.60405897	     43.55662687	      8.20736912	     -2.51589107	     25.83412800	     64.41503361
